<svg id="Layer_2" data-name="Layer 2" xmlns="http://www.w3.org/2000/svg" viewBox="0 0 81.53 16.96">
 
  <g id="_названия_этажей" data-name="названия этажей">
    <g id="_ВЫБОР" data-name="ВЫБОР">
      <g>
        <path fill='#fff'  d="M1.38,16.01C.75,10.3,.65,7.65,.02,1.94c2.97-.33,4.45-.45,7.43-.65,1.61-.11,2.89,.15,3.81,.74,.93,.6,1.43,1.56,1.52,2.89,.04,.63-.09,1.24-.4,1.85-.31,.61-.91,1.06-1.8,1.37,1.07,.17,1.83,.54,2.28,1.12,.45,.57,.7,1.27,.75,2.07,.08,1.27-.29,2.25-1.11,2.94-.82,.69-2.12,1.07-3.88,1.17-2.91,.16-4.37,.26-7.24,.58ZM7.07,4.34c-1.16,.08-1.74,.12-2.9,.22,.09,1.03,.13,1.54,.21,2.56,1.15-.1,1.73-.14,2.89-.22,.67-.04,1.12-.19,1.35-.45,.24-.26,.34-.59,.31-1.01-.03-.4-.18-.7-.45-.89-.27-.19-.74-.27-1.41-.22Zm.55,5.46c-1.2,.08-1.8,.12-3,.21,.09,1.06,.13,1.58,.22,2.64,1.18-.09,1.77-.13,2.96-.21,.76-.05,1.27-.18,1.54-.41,.26-.23,.38-.58,.34-1.05-.03-.44-.2-.76-.5-.96-.3-.2-.82-.28-1.56-.23Z"/>
        <path fill='#fff' d="M15.26,.88c1.55-.06,2.33-.09,3.88-.14,.11,1.88,.16,2.81,.26,4.68,1.2-.04,1.79-.06,2.99-.09,1.69-.05,3.07,.28,4.15,.99,1.08,.71,1.64,1.96,1.71,3.75,.03,.83-.08,1.56-.32,2.17-.24,.62-.6,1.12-1.06,1.52-.47,.4-1.03,.7-1.69,.9s-1.39,.31-2.2,.33c-2.72,.07-4.08,.09-6.81,.16-.39-5.74-.5-8.52-.9-14.26Zm7.03,10.9c.77-.02,1.32-.16,1.64-.41,.32-.26,.46-.69,.44-1.29-.03-.58-.21-.98-.55-1.22-.34-.24-.9-.34-1.68-.32-1.02,.03-1.53,.04-2.56,.07,.07,1.29,.1,1.94,.17,3.24,1.02-.02,1.53-.04,2.54-.06Zm7.73,2.98c-.17-5.75-.26-8.63-.43-14.38,1.55-.05,2.33-.07,3.88-.1,.11,5.75,.17,8.63,.28,14.38-1.49,.03-2.24,.05-3.73,.09Z"/>
        <path fill='#fff'  d="M36.72,14.62c-.07-5.75-.1-8.63-.16-14.39,4.63-.05,6.95-.04,11.58,.05l-.07,3.3c-3.05-.06-4.58-.08-7.63-.07,0,.86,0,1.29,0,2.16,1.31,0,1.97,0,3.28,.01,1.68,.01,3,.34,3.94,.95,.94,.62,1.39,1.77,1.35,3.45-.04,1.68-.53,2.85-1.46,3.54-.93,.68-2.2,1.01-3.79,1-2.82-.02-4.22-.02-7.04,.01Zm6.63-5.77c-1.16,0-1.74-.01-2.91,0,0,1.03,0,1.55,0,2.58,1.15,0,1.73,0,2.89,0,.66,0,1.14-.09,1.46-.27,.32-.19,.48-.53,.48-1.04,0-.48-.15-.81-.46-.99-.31-.18-.8-.27-1.46-.28Z"/>
        <path fill='#fff'  d="M57.97,15.23c-1.06-.05-2.03-.24-2.93-.56-.89-.33-1.66-.8-2.29-1.42-.63-.62-1.12-1.41-1.48-2.36-.35-.96-.51-2.07-.48-3.36,.04-1.27,.26-2.36,.67-3.28,.41-.92,.97-1.67,1.66-2.26,.69-.58,1.52-1,2.47-1.25,.95-.25,1.98-.35,3.08-.3,1.1,.05,2.12,.25,3.04,.59,.92,.34,1.71,.84,2.35,1.49,.64,.65,1.12,1.45,1.43,2.4,.31,.95,.43,2.07,.34,3.33-.09,1.28-.35,2.38-.79,3.3-.43,.92-1,1.65-1.7,2.21-.7,.56-1.5,.95-2.43,1.19-.92,.24-1.91,.33-2.97,.28Zm.16-3.3c1.14,.06,2.04-.26,2.71-.94,.67-.68,1.04-1.68,1.12-2.99,.08-1.31-.18-2.34-.78-3.08-.6-.74-1.49-1.14-2.65-1.2-1.17-.06-2.09,.26-2.75,.94-.67,.68-1.02,1.67-1.08,2.99-.05,1.31,.23,2.34,.83,3.08,.6,.74,1.47,1.14,2.61,1.2Z"/>
        <path fill='#fff'  d="M67.76,15.62c.44-5.74,.65-8.61,1.09-14.35,2.82,.21,4.23,.33,7.04,.6,.84,.08,1.59,.25,2.26,.5,.67,.25,1.23,.6,1.69,1.04,.45,.44,.78,.99,.98,1.64,.2,.65,.25,1.41,.16,2.28-.19,1.71-.85,2.89-1.96,3.53-1.12,.65-2.5,.89-4.15,.73-1.19-.11-1.79-.17-2.98-.27-.16,1.84-.24,2.76-.4,4.6-1.49-.13-2.23-.19-3.72-.3Zm4.39-7.46c1.04,.09,1.56,.14,2.59,.23,.78,.07,1.34-.01,1.7-.25,.36-.24,.57-.65,.62-1.22,.06-.6-.06-1.06-.37-1.37-.31-.31-.85-.5-1.64-.57-1.05-.1-1.57-.14-2.62-.24-.12,1.37-.18,2.05-.29,3.42Z"/>
      </g>
    </g>
  </g>
</svg>