<svg width="36" height="36" viewBox="0 0 36 36" fill="none" xmlns="http://www.w3.org/2000/svg">
<path fill-rule="evenodd" clip-rule="evenodd" d="M17.8033 7.33952C16.8298 8.31602 16.1593 9.11552 15.5938 9.93752C14.8378 11.0325 14.2348 12.2145 13.3438 14.025L12.5788 15.5805L9.97033 13.7925C9.83533 15.2595 9.53083 16.7475 9.04333 18.0945L9.02833 18.1335L9.01333 18.1725C8.24833 19.968 8.22883 22.422 9.28633 24.588C10.3153 26.6955 12.4018 28.6005 16.0138 29.286L15.4558 32.2335C10.9528 31.3785 8.05183 28.899 6.59083 25.9035C5.16583 22.983 5.14333 19.6395 6.23533 17.0385C6.88033 15.231 7.14433 13.026 7.02583 11.1165C6.94633 9.83552 8.37283 9.06152 9.40483 9.76652L11.4253 11.1525C11.9803 10.0695 12.5023 9.13652 13.1233 8.23652C14.0308 6.91652 15.1183 5.71352 16.7608 4.17752C17.3443 3.63152 18.2533 3.63002 18.8398 4.17752C20.4688 5.70152 21.5953 6.89702 22.5463 8.20502C23.2063 9.11252 23.7643 10.05 24.3448 11.148L26.3248 9.77252C27.3598 9.05402 28.7893 9.83552 28.7098 11.1165C28.6168 12.642 28.7638 14.3715 29.1658 15.939C29.2638 16.321 29.3753 16.6875 29.5003 17.0385C30.6703 19.8135 31.1023 23.631 29.4328 26.832C28.7533 28.137 27.5248 29.295 26.1028 30.201C24.561 31.1743 22.8562 31.8614 21.0703 32.229L20.4643 29.289C21.8925 28.9959 23.2562 28.4482 24.4903 27.672C25.6453 26.9355 26.4178 26.127 26.7733 25.4445C27.9073 23.2695 27.6778 20.4195 26.7223 18.1725L26.7073 18.1335L26.6923 18.0945C26.5253 17.6319 26.3811 17.1613 26.2603 16.6845C26.0203 15.75 25.8568 14.7795 25.7668 13.812L23.2078 15.5895L22.4383 14.025C21.5623 12.243 20.9143 11.061 20.1208 9.96902C19.5148 9.13652 18.8038 8.32802 17.8033 7.33952Z" fill="#007BFB"/>
<path fill-rule="evenodd" clip-rule="evenodd" d="M17.9552 16.2795L18.9677 17.2455C19.8497 18.0855 20.4302 18.69 20.8982 19.311C21.3707 19.9365 21.6992 20.5395 22.1042 21.3C22.6622 22.347 22.8467 23.8275 22.1822 25.1235C21.4592 26.5365 19.9502 27.33 17.9327 27.33C15.9182 27.33 14.3987 26.541 13.6457 25.155C12.9452 23.865 13.0877 22.3575 13.6997 21.27C14.2127 20.3595 14.5937 19.7115 15.0782 19.101C15.5627 18.4905 16.1177 17.955 16.9232 17.2215L17.9552 16.2795ZM17.4302 20.964C17.1092 21.369 16.8302 21.8265 16.3142 22.7415C16.2304 22.8907 16.1838 23.0579 16.1783 23.2289C16.1728 23.3999 16.2086 23.5697 16.2827 23.724C16.3787 23.9025 16.7132 24.33 17.9327 24.33C19.1477 24.33 19.4342 23.907 19.5122 23.7555C19.6502 23.4855 19.6412 23.055 19.4582 22.7115C19.0457 21.9405 18.8177 21.5325 18.5042 21.1185C18.3176 20.8765 18.1188 20.6442 17.9087 20.4225C17.7401 20.5947 17.5799 20.7749 17.4287 20.9625" fill="#007BFB"/>
</svg>
