<svg width="64" height="64" viewBox="0 0 64 64" fill="none" xmlns="http://www.w3.org/2000/svg">
<path fill-rule="evenodd" clip-rule="evenodd" d="M43.2505 6.87331L10.744 39.3798L7.44415 36.08L39.9507 3.57349L43.2505 6.87331ZM14.0775 10.2084C12.3361 10.2084 10.9245 11.6201 10.9245 13.3615C10.9245 15.1028 12.3361 16.5144 14.0775 16.5144C15.8188 16.5144 17.2305 15.1028 17.2305 13.3615C17.2305 11.6201 15.8188 10.2084 14.0775 10.2084ZM6.25781 13.3615C6.25781 9.04277 9.7588 5.54178 14.0775 5.54178C18.3961 5.54178 21.8972 9.04277 21.8972 13.3615C21.8972 17.6802 18.3961 21.1811 14.0775 21.1811C9.7588 21.1811 6.25781 17.6802 6.25781 13.3615ZM53.0745 30.789L38.2615 16.0196L41.5564 12.7149L57.7412 28.8519V59.5854H14.6703V38.0499H19.3369V54.9187H53.0745V30.789ZM36.0228 26.8503C34.2815 26.8503 32.8699 28.2619 32.8699 30.0032C32.8699 31.7447 34.2815 33.1563 36.0228 33.1563C37.7641 33.1563 39.1759 31.7447 39.1759 30.0032C39.1759 28.2619 37.7641 26.8503 36.0228 26.8503ZM28.2032 30.0032C28.2032 25.6846 31.7041 22.1836 36.0228 22.1836C40.3415 22.1836 43.8425 25.6846 43.8425 30.0032C43.8425 34.322 40.3415 37.823 36.0228 37.823C31.7041 37.823 28.2032 34.322 28.2032 30.0032Z" fill="#0F80E9"/>
</svg>
