<?xml version="1.0" encoding="UTF-8"?>
<svg id="Layer_2" data-name="Layer 2" xmlns="http://www.w3.org/2000/svg" viewBox="0 0 90.91 17.22">
  <defs>
    <style>
      .cls-1 {
        fill: #fff;
      }
    </style>
  </defs>
  <g id="_названия_этажей" data-name="названия этажей">
    <g id="_ЗАБОТА" data-name="ЗАБОТА">
      <g>
        <path class="cls-1" d="M7.16,5.09c-.87,.08-1.5,.32-1.88,.7-.39,.39-.62,.87-.71,1.46-1.59-.09-2.39-.13-3.98-.2,.14-1.42,.71-2.6,1.73-3.55,1.02-.94,2.55-1.52,4.6-1.71,2-.19,3.56,.04,4.68,.66,1.12,.62,1.72,1.61,1.83,2.96,.06,.73-.1,1.38-.46,1.94-.36,.56-.95,1-1.76,1.32,.92,.11,1.64,.41,2.17,.89s.83,1.18,.9,2.06c.1,1.28-.33,2.37-1.26,3.26-.94,.9-2.52,1.44-4.76,1.65-2.01,.19-3.61-.04-4.81-.71-1.2-.67-1.97-1.74-2.32-3.22,1.49-.39,2.24-.59,3.74-.97,.16,.55,.49,.98,1.01,1.28,.52,.3,1.22,.41,2.1,.33,.85-.08,1.49-.24,1.91-.49,.42-.25,.61-.61,.57-1.09-.04-.48-.25-.79-.61-.94-.37-.15-.94-.19-1.73-.12-.91,.08-1.36,.13-2.27,.22-.12-1.21-.18-1.82-.3-3.03,.93-.09,1.4-.14,2.33-.22,.66-.06,1.12-.21,1.39-.43,.26-.23,.38-.55,.34-.98-.04-.42-.25-.72-.65-.91-.4-.18-.99-.24-1.79-.17Z"/>
        <path class="cls-1" d="M24.82,.73c2.43,5.64,3.61,8.47,5.89,14.15-1.58,.06-2.36,.09-3.94,.16-.46-1.19-.7-1.78-1.17-2.97-2.21,.11-3.32,.17-5.53,.31-.33,1.23-.5,1.85-.83,3.08-1.53,.1-2.3,.15-3.83,.27,1.63-5.89,2.49-8.84,4.27-14.72,2.05-.13,3.08-.19,5.13-.29Zm-3.81,8.28c1.32-.08,1.97-.12,3.29-.19-.75-1.88-1.14-2.83-1.9-4.71-.56,1.96-.84,2.93-1.39,4.89Z"/>
        <path class="cls-1" d="M32.3,14.82c-.19-5.75-.28-8.63-.47-14.38,4.61-.15,6.92-.2,11.53-.22,0,1.32,.01,1.98,.02,3.3-3.04,.02-4.56,.04-7.6,.11,.02,.86,.03,1.29,.05,2.16,1.31-.03,1.96-.04,3.27-.06,1.68-.03,2.99,.26,3.95,.86,.96,.59,1.43,1.73,1.44,3.41,0,1.68-.46,2.87-1.37,3.57-.92,.7-2.17,1.06-3.77,1.09-2.82,.04-4.22,.08-7.04,.17Zm6.5-5.92c-1.16,.02-1.74,.03-2.9,.06,.02,1.03,.04,1.55,.06,2.58,1.15-.03,1.73-.04,2.88-.06,.66-.01,1.14-.11,1.45-.31,.31-.19,.46-.55,.46-1.05,0-.48-.17-.81-.48-.98-.32-.17-.81-.25-1.47-.24Z"/>
        <path class="cls-1" d="M53.56,14.89c-1.06-.02-2.04-.18-2.94-.48-.9-.3-1.68-.75-2.32-1.36-.65-.6-1.16-1.38-1.54-2.32-.38-.95-.56-2.06-.56-3.34,0-1.27,.19-2.37,.58-3.3,.39-.93,.92-1.7,1.59-2.3,.68-.6,1.48-1.04,2.42-1.32,.94-.28,1.96-.41,3.06-.38,1.1,.02,2.11,.19,3.04,.51,.93,.32,1.72,.79,2.38,1.42,.66,.63,1.16,1.42,1.5,2.36,.34,.94,.49,2.05,.44,3.32-.05,1.28-.28,2.39-.69,3.32-.41,.93-.95,1.68-1.63,2.26-.68,.58-1.47,1-2.39,1.26s-1.9,.38-2.96,.36Zm.07-3.3c1.14,.02,2.03-.31,2.68-1.02,.65-.7,.99-1.71,1.03-3.02,.04-1.31-.25-2.33-.87-3.05-.62-.72-1.51-1.1-2.67-1.12-1.16-.02-2.07,.32-2.72,1.01-.65,.7-.98,1.7-.99,3.01-.01,1.31,.29,2.33,.91,3.06,.62,.73,1.49,1.1,2.63,1.12Z"/>
        <path class="cls-1" d="M62.32,4.03c.06-1.39,.09-2.08,.14-3.47,5.44,.22,8.16,.38,13.6,.78-.1,1.38-.15,2.08-.26,3.46-1.93-.14-2.9-.21-4.83-.33-.27,4.36-.41,6.54-.68,10.9-1.49-.09-2.24-.14-3.73-.21,.23-4.36,.35-6.54,.58-10.9-1.93-.1-2.9-.15-4.83-.23Z"/>
        <path class="cls-1" d="M85.55,2.16c1.58,5.94,2.33,8.91,3.76,14.86-1.57-.17-2.36-.26-3.93-.41-.28-1.24-.43-1.87-.72-3.11-2.21-.22-3.31-.32-5.52-.5-.51,1.17-.76,1.76-1.27,2.93-1.53-.12-2.3-.18-3.83-.29,2.48-5.59,3.75-8.38,6.38-13.93,2.05,.17,3.07,.27,5.12,.47Zm-4.99,7.64c1.31,.11,1.97,.17,3.29,.3-.47-1.97-.71-2.96-1.2-4.93-.84,1.85-1.26,2.78-2.09,4.64Z"/>
      </g>
    </g>
  </g>
</svg>