<?xml version="1.0" encoding="UTF-8"?>
<svg id="Layer_2" data-name="Layer 2" xmlns="http://www.w3.org/2000/svg" viewBox="0 0 110.02 18.05">
  <defs>
    <style>
      .cls-1 {
        fill: #fff;
      }
    </style>
  </defs>
  <g id="_названия_этажей" data-name="названия этажей">
    <g id="_РЕШЕНИЕ" data-name="РЕШЕНИЕ">
      <g>
        <path class="cls-1" d="M1.79,17.32C1.08,11.61,.72,8.75,0,3.04c2.8-.35,4.21-.52,7.02-.82,.83-.09,1.6-.08,2.31,.04,.71,.11,1.33,.34,1.86,.68,.53,.34,.96,.81,1.29,1.41,.33,.6,.53,1.34,.61,2.21,.16,1.71-.25,3-1.21,3.86-.96,.86-2.27,1.37-3.92,1.55-1.19,.13-1.78,.19-2.97,.33,.21,1.83,.32,2.75,.53,4.58-1.49,.17-2.23,.26-3.72,.45Zm2.82-8.18c1.03-.12,1.55-.18,2.59-.29,.78-.08,1.32-.28,1.62-.59,.3-.31,.43-.75,.37-1.32-.06-.6-.27-1.02-.64-1.26-.36-.24-.94-.32-1.72-.23-1.04,.11-1.57,.17-2.61,.29,.16,1.36,.24,2.04,.39,3.41Z"/>
        <path class="cls-1" d="M16.08,15.8c-.5-5.73-.75-8.6-1.25-14.33,4.4-.38,6.61-.54,11.01-.8,.07,1.27,.11,1.9,.19,3.17-2.84,.17-4.25,.26-7.09,.48,.08,.98,.11,1.47,.19,2.45,2.69-.21,4.03-.3,6.72-.46,.07,1.23,.11,1.85,.18,3.08-2.67,.16-4,.25-6.66,.45,.08,1,.11,1.49,.19,2.49,2.75-.21,4.13-.3,6.88-.47,.07,1.27,.11,1.9,.19,3.17-4.22,.25-6.33,.4-10.55,.77Z"/>
        <path class="cls-1" d="M29.23,14.89c-.3-5.75-.45-8.62-.74-14.37,1.55-.08,2.32-.12,3.87-.18,.18,4.36,.27,6.55,.45,10.91,1.65-.07,2.48-.1,4.13-.15-.13-4.37-.2-6.55-.34-10.91,1.55-.05,2.33-.07,3.88-.1,.09,4.37,.14,6.55,.23,10.92,1.65-.03,2.48-.05,4.13-.06-.04-4.37-.07-6.55-.11-10.92,1.55-.02,2.33-.02,3.88-.02,0,5.76,0,8.63,0,14.39-7.76,0-11.63,.1-19.38,.5Z"/>
        <path class="cls-1" d="M51.58,14.4c.05-5.75,.07-8.63,.11-14.39,4.41,.03,6.62,.08,11.03,.24-.05,1.27-.07,1.9-.11,3.17-2.84-.1-4.26-.14-7.1-.19-.02,.98-.03,1.47-.04,2.45,2.69,.05,4.04,.08,6.73,.18-.04,1.23-.07,1.85-.11,3.09-2.67-.09-4-.13-6.67-.18-.02,1-.03,1.5-.04,2.5,2.75,.05,4.13,.09,6.88,.18-.05,1.27-.07,1.9-.11,3.17-4.22-.15-6.34-.2-10.56-.23Z"/>
        <path class="cls-1" d="M64.75,14.73c.25-5.75,.37-8.62,.62-14.37,1.55,.07,2.32,.1,3.87,.19-.11,2.16-.17,3.25-.29,5.41,2.27,.12,3.41,.2,5.68,.34,.15-2.16,.22-3.24,.37-5.4,1.55,.1,2.32,.15,3.87,.25-.45,5.75-.64,8.57-1.1,14.32-1.5-.08-2.25-.13-3.74-.22,.15-2.2,.22-3.29,.37-5.49-2.25-.14-3.38-.21-5.63-.33-.12,2.2-.17,3.3-.29,5.49-1.49-.08-2.24-.11-3.73-.18Z"/>
        <path class="cls-1" d="M90.69,16.21c.39-3.5,.55-5.19,.89-8.62-2.86,3.23-4.27,4.87-7.08,8.24-1.5-.08-2.25-.13-3.75-.21,.5-5.75,.69-8.54,1.19-14.28,1.55,.1,2.32,.16,3.86,.27-.34,3.53-.48,5.25-.79,8.74,2.81-3.33,4.22-4.94,7.15-8.24,1.54,.13,2.31,.2,3.85,.35-.69,5.7-.88,8.32-1.57,14.03-1.5-.12-2.25-.18-3.75-.28Z"/>
        <path class="cls-1" d="M97.43,16.74c.73-5.69,.92-8.28,1.65-13.97,4.38,.47,6.57,.75,10.94,1.45-.2,1.25-.29,1.87-.47,3.09-2.81-.45-4.22-.64-7.04-.99-.12,.95-.18,1.42-.29,2.36,2.68,.32,4.01,.5,6.68,.92-.16,1.17-.24,1.76-.4,2.93-2.64-.41-3.97-.59-6.63-.9-.12,.96-.17,1.43-.3,2.4,2.75,.31,4.12,.49,6.85,.92-.18,1.22-.27,1.83-.47,3.09-4.18-.66-6.3-.9-10.53-1.3Z"/>
      </g>
    </g>
  </g>
</svg>