<svg width="65" height="64" viewBox="0 0 65 64" fill="none" xmlns="http://www.w3.org/2000/svg">
<path fill-rule="evenodd" clip-rule="evenodd" d="M18.9946 16.7475C18.7149 16.7885 18.4339 16.838 18.152 16.8962L18.1471 16.8972C12.9395 17.9845 8.78021 22.1438 7.69291 27.3514L7.69188 27.3563C5.87695 36.1474 12.5329 43.9616 21.0823 43.9616H24.367C27.5991 43.9616 30.2573 46.6198 30.2573 49.8519V58.849H34.7573V49.8519C34.7573 44.1345 30.0844 39.4616 24.367 39.4616H21.0823C15.3514 39.4616 10.8685 34.2338 12.0984 28.2687C12.8207 24.8142 15.6101 22.0249 19.0646 21.3027C25.0296 20.0729 30.2573 24.5557 30.2573 30.2866C30.2573 37.8484 36.3461 44.0092 43.9323 44.0092C51.5062 44.0092 57.6072 37.9082 57.6072 30.3343C57.6072 25.5501 55.1557 21.3359 51.4574 18.8893L48.9746 22.6424C51.4647 24.2897 53.1072 27.1209 53.1072 30.3343C53.1072 35.4229 49.0209 39.5092 43.9323 39.5092C38.8557 39.5092 34.7573 35.3875 34.7573 30.2866C34.7573 23.5543 29.9118 17.9961 23.5594 16.8238C24.4882 12.7283 28.1561 9.68677 32.5073 9.68677C37.5899 9.68677 41.6823 13.8145 41.6823 18.8617C41.6823 22.0035 40.113 24.7908 37.713 26.4289L40.2498 30.1457C43.848 27.6898 46.1823 23.5269 46.1823 18.8617C46.1823 11.3414 40.0874 5.18677 32.5073 5.18677C25.7008 5.18677 20.0129 10.1796 18.9946 16.7475Z" fill="white"/>
</svg>
