<svg width="159" height="21" viewBox="0 0 159 21" fill="none" xmlns="http://www.w3.org/2000/svg">
<path d="M45.426 0.40918H52.5069L58.1962 15.5533L63.8445 0.40918H70.6798V20.5877H66.1366V5.15704L60.2427 20.5877H55.5767L49.6827 5.23893V20.5877H45.426V0.40918Z" fill="white"/>
<path d="M100.31 0.40918H115.904V20.5877H111.074V4.6659H104.689C104.648 7.49007 104.567 11.2966 104.485 13.4249C104.321 18.7049 102.766 20.5877 98.2225 20.5877H96.0532V16.3309H97.2402C99.2867 16.3309 99.9415 15.4305 100.064 12.5244C100.269 9.45468 100.31 3.35613 100.31 0.40918Z" fill="white"/>
<path d="M140.622 0.40918H159V4.6659H152.205V20.5877H147.417V4.6659H140.622V0.40918Z" fill="white"/>
<path d="M32.9014 0H31.1824C27.0485 0 23.8969 2.53767 23.1602 6.30322L27.5806 6.99901C28.1945 5.19809 29.5861 3.9702 31.3052 3.88834C31.8782 3.84741 31.7554 3.88834 32.2875 3.88834C34.907 3.9702 36.0531 5.23905 36.0531 8.3088C31.1006 8.3088 27.7443 8.06318 25.2476 9.70037C23.2011 11.0511 22.3416 12.5246 22.3416 14.8576C22.3416 18.2548 24.961 20.9561 29.2587 20.9561C29.9135 20.9561 29.668 20.9561 29.8317 20.9561C32.8605 20.9561 35.2754 19.7692 36.2577 18.3776V20.5468H40.7191V8.39064C40.76 3.76555 38.2633 0 32.9014 0ZM30.2001 17.0678C28.3173 17.0268 27.2122 15.9217 27.2122 14.5301C27.2122 13.3841 27.7443 12.8111 28.3992 12.4427C29.095 12.0334 30.0363 11.8697 31.5098 11.8288C32.9014 11.7878 34.0475 11.706 36.1758 11.706C36.1758 15.1441 34.0066 16.8631 31.3461 17.0678C30.8959 17.1087 30.6503 17.0678 30.2001 17.0678Z" fill="white"/>
<path d="M139.526 11.8694V9.98666C139.526 3.4788 135.433 0.122559 130.153 0.122559H129.13C123.44 0.122559 119.839 4.01087 119.634 9.45455C119.593 10.2732 119.593 10.6006 119.634 11.6648C119.757 17.1085 123.563 20.7512 128.679 20.9149C129.621 20.9559 129.498 20.9559 130.358 20.9149C134.778 20.7921 138.134 18.2136 139.117 14.8983L134.819 14.1615C133.755 16.2489 131.79 17.0675 130.194 17.1494C129.703 17.1903 129.621 17.1903 129.13 17.1494C126.633 17.0266 124.382 15.062 124.382 12.2378V11.9103H139.526V11.8694ZM129.048 3.92901C129.539 3.88808 129.744 3.88808 130.235 3.92901C132.322 4.0518 134.573 5.40252 134.778 8.10389H124.423C124.668 5.68903 126.592 4.0518 129.048 3.92901Z" fill="white"/>
<path d="M94.8306 8.71829C94.7078 3.84763 90.7785 0.0820312 85.5804 0.0820312H83.6976C78.4995 0.0820312 74.5702 3.80669 74.4474 8.71829C74.4065 10.069 74.4065 10.8876 74.4474 12.2383C74.5702 17.1498 78.4995 20.8745 83.6976 20.8745H85.5804C90.7785 20.8745 94.7078 17.1498 94.8306 12.2383C94.8306 10.9285 94.8306 10.069 94.8306 8.71829ZM90.0827 12.0336C90.0418 14.8987 87.9544 16.8224 85.1711 16.9452C84.639 16.9861 84.68 16.9861 84.1479 16.9452C81.3237 16.8224 79.2772 14.8578 79.2363 12.0336C79.1953 10.8466 79.1953 10.1917 79.2363 9.00478C79.2772 6.18061 81.3237 4.2569 84.1479 4.09318C84.68 4.05225 84.639 4.05225 85.1711 4.09318C87.9544 4.21597 90.0418 6.18061 90.0827 9.00478C90.0827 10.1917 90.0827 10.8466 90.0827 12.0336Z" fill="white"/>
<path d="M14.9292 13.4657C14.3561 15.3485 12.8827 16.6173 10.8362 16.9038C10.2631 16.9857 9.69012 16.9448 9.19896 16.9038C6.70224 16.5355 4.90133 14.6527 4.8604 12.0332C4.81947 10.8462 4.81947 10.1913 4.8604 9.00434C4.90133 6.34389 6.78412 4.37925 9.32177 4.09274C9.48549 4.09274 10.0176 4.01088 10.5497 4.09274C12.719 4.33832 14.3152 5.60715 14.8882 7.57179L19.5543 6.67135C18.531 2.82393 15.0929 0.122559 10.6315 0.122559H9.28085C4.08275 0.122559 0.153487 3.84717 0.0306975 8.75877C-0.0102325 10.1095 -0.0102325 10.928 0.0306975 12.2787C0.153487 17.1903 4.08275 20.9149 9.28085 20.9149H10.6315C15.1338 20.9149 18.6538 18.0908 19.5952 14.1206L14.9292 13.4657Z" fill="white"/>
</svg>
