<svg width="73" height="75" viewBox="0 0 73 75" fill="none" xmlns="http://www.w3.org/2000/svg">
<path fill-rule="evenodd" clip-rule="evenodd" d="M0.908691 16.9172C0.908691 8.07023 8.0581 0.803284 16.9506 0.803284H59.3687C60.5372 0.803284 61.6086 1.45455 62.1465 2.49207C62.6844 3.52958 62.5993 4.78037 61.9256 5.73543L13.0872 74.9893L7.97314 71.3829L53.3334 7.06106H16.9506C11.5594 7.06106 7.16643 11.4807 7.16643 16.9172C7.16643 22.3311 11.6089 26.7734 17.0228 26.7734C22.4365 26.7734 26.879 22.3311 26.879 16.9172V12.5889H33.1368V16.9172C33.1368 25.7872 25.8926 33.0313 17.0228 33.0313C8.15281 33.0313 0.908691 25.7872 0.908691 16.9172ZM55.9781 46.0165C50.5346 46.0165 46.1219 50.4292 46.1219 55.8727C46.1219 61.316 50.5346 65.7289 55.9781 65.7289C61.4215 65.7289 65.8343 61.316 65.8343 55.8727C65.8343 50.4292 61.4215 46.0165 55.9781 46.0165ZM39.8641 55.8727C39.8641 46.9731 47.0785 39.7587 55.9781 39.7587C64.8775 39.7587 72.0921 46.9731 72.0921 55.8727C72.0921 64.7721 64.8775 71.9867 55.9781 71.9867C47.0785 71.9867 39.8641 64.7721 39.8641 55.8727Z" fill="#007BFB"/>
</svg>
