<svg width="22" height="22" viewBox="0 0 22 22" fill="none" xmlns="http://www.w3.org/2000/svg">
<path d="M17.0989 0.812012H4.87664C2.63073 0.812012 0.810059 2.63268 0.810059 4.8786V17.1008C0.810059 19.3467 2.63073 21.1674 4.87664 21.1674H17.0989C19.3448 21.1674 21.1654 19.3467 21.1654 17.1008V4.8786C21.1654 2.63268 19.3448 0.812012 17.0989 0.812012Z" stroke="white" stroke-miterlimit="10"/>
<path d="M10.7753 16.9457C14.0647 16.9457 16.7312 14.2792 16.7312 10.9898C16.7312 7.70047 14.0647 5.03394 10.7753 5.03394C7.486 5.03394 4.81946 7.70047 4.81946 10.9898C4.81946 14.2792 7.486 16.9457 10.7753 16.9457Z" stroke="white" stroke-miterlimit="10" stroke-linecap="round"/>
<path d="M10.7753 16.002C13.5435 16.002 15.7876 13.758 15.7876 10.9898C15.7876 8.2216 13.5435 5.97754 10.7753 5.97754C8.00712 5.97754 5.76306 8.2216 5.76306 10.9898C5.76306 13.758 8.00712 16.002 10.7753 16.002Z" stroke="white" stroke-miterlimit="10" stroke-linecap="round"/>
<path d="M11.1389 13.3387L17.0866 5.59563C17.0866 5.59563 17.3235 5.25658 17.0437 4.98288C16.676 4.62545 16.2777 5.02169 16.2777 5.02169L10.8059 12.0621L7.90561 9.97676C7.90561 9.97676 7.49711 9.68468 7.21933 10.0687C6.94156 10.4527 7.23567 10.712 7.23567 10.712L10.5935 13.0813" fill="white"/>
<path d="M11.1389 13.3387L17.0866 5.59563C17.0866 5.59563 17.3235 5.25658 17.0437 4.98288C16.676 4.62545 16.2777 5.02169 16.2777 5.02169L10.8059 12.0621L7.90561 9.97676C7.90561 9.97676 7.49711 9.68468 7.21933 10.0687C6.94156 10.4527 7.23567 10.712 7.23567 10.712L10.5935 13.0813" stroke="white" stroke-miterlimit="10" stroke-linecap="round"/>
</svg>
