<svg width="64" height="64" viewBox="0 0 64 64" fill="none" xmlns="http://www.w3.org/2000/svg">
<g clip-path="url(#clip0_13_373)">
<mask id="mask0_13_373" style="mask-type:luminance" maskUnits="userSpaceOnUse" x="0" y="0" width="64" height="64">
<path d="M64 0H0V64H64V0Z" fill="white"/>
</mask>
<g mask="url(#mask0_13_373)">
<path fill-rule="evenodd" clip-rule="evenodd" d="M14.1368 27.9955C11.4042 30.7282 11.4042 35.1563 14.1368 37.8889C16.8694 40.6215 21.2976 40.6215 24.0301 37.8889L40.2852 21.6338L34.3962 15.7447L37.696 12.445L43.585 18.3339L47.8242 14.0949L41.9352 8.20583L45.235 4.90601L51.124 10.795L55.1284 6.79074L58.4281 10.0906L33.9286 34.5901C36.3414 34.9334 38.6672 36.033 40.5232 37.8889C45.0776 42.4434 45.0776 49.8275 40.5232 54.3819C36.1002 58.8047 29.0088 58.9326 24.4318 54.7653C23.9632 55.6437 23.3586 56.4686 22.6181 57.209C18.5841 61.243 12.0438 61.243 8.00985 57.209C3.97589 53.1751 3.97589 46.6347 8.00985 42.6007C8.75033 41.8603 9.57526 41.2558 10.4536 40.7871C6.28571 36.2095 6.41347 29.1193 10.837 24.6958C15.392 20.1407 22.7749 20.1407 27.33 24.6958L30.157 27.5229L26.8572 30.8227L24.0301 27.9955C21.2976 25.263 16.8694 25.263 14.1368 27.9955ZM27.33 41.1887C24.598 43.9207 24.598 48.3501 27.33 51.0821C30.062 53.8141 34.4913 53.8141 37.2233 51.0821C39.9553 48.3501 39.9553 43.9207 37.2233 41.1887C34.4913 38.4567 30.062 38.4567 27.33 41.1887ZM11.3097 45.9006C9.09817 48.1121 9.09817 51.6977 11.3097 53.9093C13.5212 56.1207 17.1068 56.1207 19.3182 53.9093C21.5298 51.6977 21.5298 48.1121 19.3182 45.9006C17.1068 43.6891 13.5212 43.6891 11.3097 45.9006ZM49.4741 30.8227L45.7046 27.0533L49.0045 23.7534L52.774 27.5229L49.4741 30.8227ZM57.013 23.2838L53.2436 19.5143L56.5434 16.2145L60.3129 19.9839L57.013 23.2838Z" fill="#0F80E9"/>
</g>
</g>
<defs>
<clipPath id="clip0_13_373">
<rect width="64" height="64" fill="white"/>
</clipPath>
</defs>
</svg>
