<svg width="32" height="32" viewBox="0 0 32 32" fill="none" xmlns="http://www.w3.org/2000/svg">
<mask id="mask0_13_424" style="mask-type:luminance" maskUnits="userSpaceOnUse" x="3" y="1" width="29" height="29">
<path d="M32 1H3V30H32V1Z" fill="white"/>
</mask>
<g mask="url(#mask0_13_424)">
<path fill-rule="evenodd" clip-rule="evenodd" d="M9.45946 13.7387C8.25074 14.9474 8.25074 16.9061 9.45946 18.1148C10.6682 19.3235 12.6269 19.3235 13.8356 18.1148L21.1477 10.8026L18.5327 8.18756L20.1347 6.58552L22.7498 9.20059L24.5638 7.38654L21.9488 4.77148L23.5508 3.16943L26.1659 5.7845L27.9269 4.02346L29.529 5.62549L18.5327 16.6218C19.5885 16.8021 20.6007 17.2998 21.4158 18.1148C23.509 20.208 23.509 23.6018 21.4158 25.695C19.4059 27.7049 16.197 27.7849 14.0916 25.9351C13.8828 26.3081 13.6198 26.6589 13.3026 26.9761C11.4452 28.8334 8.43377 28.8334 6.57639 26.9761C4.719 25.1186 4.719 22.1072 6.57639 20.2499C6.89356 19.9327 7.24439 19.6697 7.61737 19.4608C5.76724 17.3553 5.84726 14.1468 7.85742 12.1367C9.95092 10.0432 13.3441 10.0432 15.4376 12.1367L16.7186 13.4177L15.1166 15.0197L13.8356 13.7387C12.6269 12.53 10.6682 12.53 9.45946 13.7387ZM15.4376 19.7168C14.2292 20.9253 14.2291 22.8845 15.4376 24.093C16.646 25.3014 18.6053 25.3014 19.8137 24.093C21.0221 22.8845 21.0221 20.9253 19.8137 19.7168C18.6053 18.5084 16.646 18.5084 15.4376 19.7168ZM8.17842 21.8519C7.20583 22.8245 7.20583 24.4014 8.17842 25.374C9.15103 26.3466 10.7279 26.3466 11.7005 25.374C12.6731 24.4014 12.6731 22.8245 11.7005 21.8519C10.7279 20.8793 9.15103 20.8793 8.17842 21.8519ZM25.3649 15.0197L23.6569 13.3117L25.2588 11.7097L26.9669 13.4177L25.3649 15.0197ZM28.781 11.6036L27.0729 9.8956L28.6749 8.29356L30.383 10.0016L28.781 11.6036Z" fill="#007BFB"/>
</g>
</svg>
