<svg width="60" height="60" viewBox="0 0 60 60" fill="none" xmlns="http://www.w3.org/2000/svg">
<path d="M55 28.2831L30 6.61648L5 28.2831V50L0 50V26L30 0L60 26V60H0V55H55V28.2831Z" fill="white"/>
<path fill-rule="evenodd" clip-rule="evenodd" d="M44.5965 37.4612L29.9854 51L15.3927 37.4593C12.1061 34.4097 12.0095 29.2406 15.1798 26.0703C18.2102 23.0399 23.1029 22.9747 26.2129 25.9233L29.9854 29.5L33.785 25.9086C36.8973 22.9669 41.7853 23.0358 44.8135 26.064C47.9866 29.2371 47.8881 34.4112 44.5965 37.4612ZM29.9801 36.385L37.2196 29.5424C38.3649 28.4598 40.1636 28.4852 41.278 29.5995C42.4456 30.7672 42.4094 32.6712 41.1981 33.7936L29.9878 44.1813L18.7936 33.7941C17.585 32.6726 17.5495 30.7717 18.7153 29.6058C19.8298 28.4914 21.6291 28.4674 22.7728 29.5518L29.9801 36.385Z" fill="white"/>
</svg>
