<svg width="28" height="28" viewBox="0 0 28 28" fill="none" xmlns="http://www.w3.org/2000/svg">
<g clip-path="url(#clip0_282_3203)">
<path d="M14 28C21.732 28 28 21.732 28 14C28 6.26803 21.732 0 14 0C6.26803 0 0 6.26803 0 14C0 21.732 6.26803 28 14 28Z" fill="url(#paint0_linear_282_3203)"/>
<path d="M5.21428 14.6849C6.85086 13.7834 8.67775 13.031 10.3847 12.2748C13.3213 11.0361 16.2696 9.81895 19.2476 8.68576C19.8271 8.49268 20.8681 8.30386 20.9702 9.16252C20.9143 10.378 20.6844 11.5863 20.5266 12.7946C20.1263 15.4518 19.6636 18.0999 19.2124 20.7483C19.0569 21.6305 17.9518 22.0872 17.2447 21.5227C15.5453 20.3748 13.8329 19.2381 12.1552 18.0636C11.6057 17.5052 12.1153 16.7033 12.6061 16.3045C14.0057 14.9252 15.4901 13.7532 16.8166 12.3026C17.1744 11.4385 16.1172 12.1667 15.7685 12.3899C13.8523 13.7103 11.9831 15.1114 9.96289 16.2718C8.93097 16.8399 7.72826 16.3544 6.69681 16.0375C5.77198 15.6546 4.41676 15.2688 5.21418 14.6849L5.21428 14.6849Z" fill="white"/>
</g>
<defs>
<linearGradient id="paint0_linear_282_3203" x1="10.5016" y1="1.1676" x2="3.50163" y2="17.5" gradientUnits="userSpaceOnUse">
<stop stop-color="#37AEE2"/>
<stop offset="1" stop-color="#1E96C8"/>
</linearGradient>
<clipPath id="clip0_282_3203">
<rect width="28" height="28" fill="white"/>
</clipPath>
</defs>
</svg>
