<svg width="28" height="28" viewBox="0 0 28 28" fill="none" xmlns="http://www.w3.org/2000/svg">
<path d="M0 28L1.98224 20.8068C0.759943 18.6971 0.117045 16.3074 0.117496 13.8754C0.117496 6.2289 6.37275 0 14.0515 0C17.781 0 21.2755 1.44766 23.918 4.06453C25.2166 5.35401 26.2455 6.88425 26.946 8.56771C27.6464 10.2512 28.0046 12.0548 28 13.8754C28 21.5227 21.7455 27.7516 14.0659 27.7516C11.732 27.7516 9.44122 27.1662 7.39983 26.0555L0 28Z" fill="url(#paint0_linear_282_3209)"/>
<path fill-rule="evenodd" clip-rule="evenodd" d="M10.4548 7.85131C10.191 7.25168 9.89691 7.23744 9.64753 7.23744C9.42693 7.22241 9.19194 7.22241 8.94256 7.22241C8.70757 7.22241 8.31112 7.31022 7.97382 7.6757C7.63572 8.04117 6.71094 8.90423 6.71094 10.6739C6.71094 12.4427 8.00339 14.1538 8.17923 14.3872C8.35508 14.6213 10.6754 18.3647 14.3458 19.8123C17.3999 21.0108 18.0169 20.7774 18.6779 20.7039C19.3381 20.6311 20.8064 19.8416 21.115 18.9928C21.4083 18.1598 21.4083 17.4288 21.3204 17.2825C21.2325 17.1361 20.9823 17.0483 20.6298 16.8585C20.2629 16.6828 18.5013 15.8063 18.1632 15.6885C17.8259 15.5714 17.5909 15.5128 17.3559 15.8641C17.1209 16.2296 16.4311 17.0341 16.2105 17.2674C16.0051 17.5016 15.7853 17.5309 15.4328 17.3553C15.0651 17.1804 13.9062 16.7999 12.525 15.5714C11.4539 14.6213 10.7346 13.4371 10.514 13.0858C10.3085 12.7204 10.4844 12.5305 10.6754 12.3549C10.8369 12.1943 11.0431 11.9309 11.2189 11.726C11.3948 11.5211 11.4531 11.3605 11.5858 11.1264C11.7033 10.893 11.6442 10.6731 11.5562 10.4982C11.4683 10.3369 10.7777 8.56803 10.4548 7.85131Z" fill="white"/>
<defs>
<linearGradient id="paint0_linear_282_3209" x1="13.9972" y1="27.9984" x2="13.9972" y2="-0.00553829" gradientUnits="userSpaceOnUse">
<stop stop-color="#20B038"/>
<stop offset="1" stop-color="#60D66A"/>
</linearGradient>
</defs>
</svg>
