<?xml version="1.0" encoding="UTF-8"?>
<svg id="Layer_2" data-name="Layer 2" xmlns="http://www.w3.org/2000/svg" viewBox="0 0 66.36 17.73">
  <defs>
    <style>
      .cls-1 {
        fill: #fff;
      }
    </style>
  </defs>
  <g id="_названия_этажей" data-name="названия этажей">
    <g>
      <path class="cls-1" d="M1.76,17.73c-.26-2.37-.39-3.55-.65-5.92,.57-.06,.86-.09,1.43-.15,.37-.4,.65-.98,.83-1.73,.18-.75,.23-1.53,.15-2.34-.24-2.42-.37-3.64-.61-6.06,4.39-.44,6.58-.62,10.98-.9,.26,4.01,.38,6.01,.64,10.02,.79-.05,1.19-.07,1.99-.12,.14,2.38,.2,3.57,.34,5.95-1.31,.07-1.96,.12-3.27,.21-.08-1.1-.11-1.65-.19-2.76-3.46,.24-5.19,.38-8.64,.72,.11,1.1,.16,1.65,.27,2.75-1.31,.13-1.96,.2-3.26,.34ZM6.91,7.67c.05,.7,.02,1.35-.1,1.95-.11,.6-.31,1.16-.58,1.67,1.91-.18,2.87-.26,4.78-.4-.21-2.73-.31-4.1-.52-6.83-1.53,.12-2.29,.18-3.82,.31,.09,1.32,.14,1.98,.23,3.3Z"/>
      <path class="cls-1" d="M25.27,10.07c-.26,.63-.53,1.16-.81,1.59-.28,.43-.6,.78-.97,1.03-.37,.26-.8,.45-1.29,.58-.49,.13-1.09,.21-1.78,.24-.66,.03-.99,.04-1.65,.08-.06-1.26-.09-1.89-.16-3.15,.46-.02,.69-.03,1.15-.06,.37-.02,.69-.05,.95-.11,.26-.06,.48-.13,.65-.23-2.19-3.84-3.32-5.75-5.64-9.54,1.63-.09,2.44-.14,4.07-.21,1.4,2.58,2.09,3.87,3.43,6.47,1.08-2.68,1.63-4.01,2.76-6.68,1.49-.04,2.23-.05,3.72-.07-1.84,4.01-2.73,6.02-4.44,10.05Z"/>
      <path class="cls-1" d="M31.28,13.24c-.03-5.29-.05-7.94-.09-13.23,1.45,0,2.17,0,3.62,0-.02,4.02-.03,6.03-.05,10.04,1.54,0,2.3,.02,3.84,.05,.07-4.02,.11-6.02,.19-10.04,1.45,.03,2.17,.04,3.62,.09-.12,4.02-.18,6.02-.31,10.04,1.54,.05,2.3,.07,3.83,.15,.18-4,.27-5.99,.44-10.02,1.45,.09,2.17,.15,3.62,.28-.29,5.31-.47,7.84-.78,13.1-7.1-.43-10.75-.49-17.94-.44Z"/>
      <path class="cls-1" d="M61.35,1.94c1.5,5.5,2.07,7.84,3.33,13.1-1.46-.16-2.18-.23-3.63-.38-.25-1.11-.38-1.65-.63-2.74-2.03-.21-3.05-.32-5.08-.5-.47,1.04-.71,1.56-1.17,2.62-1.4-.11-2.1-.16-3.5-.26,2.23-5.11,3.46-7.44,5.88-12.46,1.92,.24,2.88,.37,4.8,.61Zm-4.68,6.67c1.22,.13,1.83,.2,3.04,.34-.41-1.74-.63-2.61-1.07-4.39-.79,1.63-1.19,2.43-1.97,4.05Z"/>
    </g>
  </g>
</svg>