<svg width="32" height="32" viewBox="0 0 32 32" fill="none" xmlns="http://www.w3.org/2000/svg">
<path fill-rule="evenodd" clip-rule="evenodd" d="M16 1.2002L28.2 14.0002V26.1502H26V14.9502L16 4.4502L6 14.9502V26.1502H3.8V14.0002L16 1.2002ZM10.7 14.6002C11.95 13.3002 14 13.3002 15.25 14.6002L16 15.3502L16.75 14.6002C18 13.3002 20.05 13.3002 21.3 14.6002C22.55 15.9002 22.55 18.1002 21.3 19.4002L16 24.9502L10.7 19.4002C9.45 18.0502 9.45 15.9002 10.7 14.6002ZM13.7 16.2002C13.3 15.7502 12.6 15.7502 12.2 16.2002C11.8 16.6502 11.8 17.3502 12.2 17.7502L15.95 21.7002L19.7 17.7502C20.1 17.3002 20.1 16.6002 19.7 16.2002C19.3 15.7502 18.6 15.7502 18.2 16.2002L16 18.6002L13.7 16.2002ZM28.5 27.9002V30.2002H3.5V27.9002H28.5Z" fill="#007BFB"/>
</svg>
