<svg width="64" height="64" viewBox="0 0 64 64" fill="none" xmlns="http://www.w3.org/2000/svg">
<path fill-rule="evenodd" clip-rule="evenodd" d="M32 2.3999L56.4 27.9999V52.2999H52V29.8999L32 8.8999L12 29.8999V52.2999H7.6V27.9999L32 2.3999ZM21.4 29.1999C23.9 26.5999 28 26.5999 30.5 29.1999L32 30.6999L33.5 29.1999C36 26.5999 40.1 26.5999 42.6 29.1999C45.1 31.7999 45.1 36.1999 42.6 38.7999L32 49.8999L21.4 38.7999C18.9 36.0999 18.9 31.7999 21.4 29.1999ZM27.4 32.3999C26.6 31.4999 25.2 31.4999 24.4 32.3999C23.6 33.2999 23.6 34.6999 24.4 35.4999L31.9 43.3999L39.4 35.4999C40.2 34.5999 40.2 33.1999 39.4 32.3999C38.6 31.4999 37.2 31.4999 36.4 32.3999L32 37.1999L27.4 32.3999ZM57 55.7999V60.3999H7V55.7999H57Z" fill="white"/>
</svg>
