<svg width="26" height="26" viewBox="0 0 26 26" fill="none" xmlns="http://www.w3.org/2000/svg">
<path d="M20.3277 0.80127H5.66103C2.96593 0.80127 0.781128 2.98394 0.781128 5.67639V20.3287C0.781128 23.0211 2.96593 25.2038 5.66103 25.2038H20.3277C23.0228 25.2038 25.2076 23.0211 25.2076 20.3287V5.67639C25.2076 2.98394 23.0228 0.80127 20.3277 0.80127Z" stroke="#0F80E9" stroke-miterlimit="10"/>
<path d="M15.438 17.8728C15.3154 16.9864 16.2321 16.3033 16.2321 16.3033C18.2664 15.1671 19.6414 12.9953 19.6414 10.5026C19.6414 6.83708 16.6659 3.8645 12.9968 3.8645C9.32766 3.8645 6.35217 6.83708 6.35217 10.5026C6.35217 13.0932 7.83747 15.3385 10.0041 16.4306C10.0041 16.4306 10.9478 16.7857 10.8497 17.8704" stroke="#0F80E9" stroke-miterlimit="10" stroke-linecap="round"/>
<path d="M15.438 17.8728H10.5532C10.1444 17.8728 9.81299 18.2039 9.81299 18.6123V19.8929C9.81299 20.3013 10.1444 20.6324 10.5532 20.6324H15.438C15.8468 20.6324 16.1782 20.3013 16.1782 19.8929V18.6123C16.1782 18.2039 15.8468 17.8728 15.438 17.8728Z" stroke="#0F80E9" stroke-miterlimit="10" stroke-linecap="round"/>
<path d="M9.26892 18.8276H16.9429" stroke="#0F80E9" stroke-miterlimit="10" stroke-linecap="round"/>
<path d="M9.26892 19.8193H16.9429" stroke="#0F80E9" stroke-miterlimit="10" stroke-linecap="round"/>
<path d="M13.1071 3.96973V6.44769C13.1071 6.62399 13.1732 6.79784 13.3056 6.91292C13.4379 7.028 13.6316 7.08922 13.8889 6.87864C14.3056 6.54073 14.6757 6.10734 15.3742 6.36689C15.8472 6.54074 16.21 6.96434 16.2492 7.46875C16.308 8.22291 15.7124 8.8522 14.9698 8.8522C14.5164 8.8522 14.1879 8.55837 13.8889 8.26209C13.7762 8.14945 13.5139 8.01968 13.2566 8.28902C13.1708 8.37962 13.1071 8.56326 13.1071 8.68814V13.289C13.1071 13.289 12.9968 13.9599 12.46 13.649C12.1585 13.4727 11.9404 13.0809 11.3889 13.054C10.7223 13.0197 10.1218 13.529 10.0507 14.1925C9.96735 14.9639 10.5703 15.6152 11.3252 15.6152C11.7321 15.6152 12.0923 15.4266 12.3276 15.1328C12.4477 14.9834 12.6316 14.8879 12.8203 14.9198C12.9673 14.9443 13.1095 15.0226 13.1463 15.2307V17.7871" stroke="#0F80E9" stroke-miterlimit="10" stroke-linecap="round"/>
<path d="M19.639 10.8355H17.6978C17.5213 10.8355 17.3473 10.9016 17.2321 11.0338C17.1169 11.1661 17.0556 11.3595 17.2664 11.6166C17.6046 12.0329 18.0385 12.4026 17.7787 13.1004C17.6046 13.573 17.1806 13.9354 16.6757 13.9746C15.9208 14.0333 15.2909 13.4383 15.2909 12.6964C15.2909 12.2434 15.585 11.9153 15.8816 11.6166C15.9943 11.504 16.1243 11.242 15.8546 10.9849C15.764 10.8992 15.5801 10.8355 15.4551 10.8355H10.8497C10.8497 10.8355 10.1782 10.7253 10.4894 10.1891C10.6659 9.8879 11.0581 9.66997 11.085 9.11904C11.1193 8.45303 10.6095 7.85313 9.94533 7.78212C9.17327 7.69887 8.52131 8.30122 8.52131 9.05538C8.52131 9.46185 8.71003 9.82179 9.00415 10.0569C9.15366 10.1768 9.24925 10.3605 9.21739 10.549C9.19288 10.6959 9.11445 10.8379 8.90611 10.8747H6.34729" stroke="#0F80E9" stroke-miterlimit="10" stroke-linecap="round"/>
<path d="M11.7787 20.6323H14.5164V21.3179C14.5164 22.0721 13.9037 22.6867 13.1463 22.6867C12.3914 22.6867 11.7762 22.0745 11.7762 21.3179V20.6323H11.7787Z" stroke="#0F80E9" stroke-miterlimit="10" stroke-linecap="round"/>
</svg>
