<svg width="212" height="32" viewBox="0 0 212 32" fill="none" xmlns="http://www.w3.org/2000/svg">
<mask id="mask0_637_10722" style="mask-type:luminance" maskUnits="userSpaceOnUse" x="0" y="0" width="212" height="32">
<path d="M211.613 0H0V32H211.613V0Z" fill="white"/>
</mask>
<g mask="url(#mask0_637_10722)">
<path d="M95.309 31.5994H100.48V27.2185H114.449V31.5578H119.579V22.9625H116.869V5.85514H100.023L99.6482 15.9246C99.565 18.546 99.0241 20.674 97.645 22.9625H95.309V31.5994ZM104.528 16.3347L104.736 10.1112H111.697V22.9209H102.9C103.94 21.0425 104.445 18.7065 104.528 16.3347ZM133.043 5.85514H122.498V27.2601H127.622V19.4435H133.043C137.798 19.4435 140.717 17.1491 140.717 12.6077C140.717 8.02476 137.923 5.85514 133.043 5.85514ZM127.622 15.1875V10.0696H132.918C134.63 10.0696 135.628 11.0147 135.628 12.6077C135.628 14.2067 134.63 15.2291 132.918 15.2291L127.622 15.1875ZM191.462 5.85514V27.2601H202.762C206.929 27.2601 210.596 25.8692 210.596 21.2862C210.596 18.9918 209.473 17.3987 207.678 16.4952C209.223 15.556 210.097 13.9571 210.097 11.8706C210.097 7.28768 206.513 5.89674 202.298 5.89674L191.462 5.85514ZM196.544 14.492V9.99228H202.382C204.218 9.99228 205.092 10.765 205.092 12.2808C205.092 13.8798 204.218 14.5336 202.382 14.5336L196.544 14.492ZM196.544 23.0873V18.5816H202.845C204.593 18.5816 205.467 19.3246 205.467 20.8345C205.467 22.3502 204.634 23.1289 202.845 23.1289L196.544 23.0873ZM165.86 0.945236L165.902 4.63063L184.371 2.86521V0.945236H165.86ZM147.22 5.85514L140.176 27.2601H145.763L146.762 23.8244H153.687L154.769 27.2601H160.439L153.348 5.85514H147.22ZM152.433 19.5684H147.844L150.097 10.6878H150.221L152.433 19.5684ZM168.446 5.85514H163.067V27.2601H168.987L181.66 12.364H181.785L181.702 27.2601H187.081V5.85514H181.161L168.488 20.7572H168.363L168.446 5.85514Z" fill="#32D264"/>
<path d="M54.954 10.0697V27.2602H59.9946V10.0697H65.8318V5.85524H49.1108V10.0697H54.954ZM33.5609 5.85524H28.7223V27.2602H34.393L41.6093 12.7743H41.7341L41.4012 27.2602H46.2814V5.85524H40.569L33.3528 20.3055H33.228L33.5609 5.85524ZM74.0051 5.85524H68.6256V27.2602H74.546L87.2249 12.3641H87.3498L87.2665 27.2602H92.646V5.85524H86.7197L74.0467 20.7514H73.9219L74.0051 5.85524ZM25.8037 21.857L20.7214 19.6873C19.1343 22.5168 16.5486 23.129 13.422 23.129C8.25053 23.129 5.6232 20.8762 5.6232 16.6618V16.3764C5.6232 12.1561 8.25053 9.90917 13.422 9.90917C16.5486 9.90917 19.1343 10.4798 20.7214 13.3449L25.8037 11.1753C23.3904 6.30699 18.5518 5.36187 13.422 5.36187C5.1655 5.36187 0 9.54063 0 16.1268V16.9471C0 23.5808 5.1655 27.712 13.422 27.712C18.5102 27.712 23.3904 26.7312 25.8037 21.857Z" fill="#5F00A5"/>
</g>
</svg>
