<svg width="160" height="32" viewBox="0 0 160 32" fill="none" xmlns="http://www.w3.org/2000/svg">
<mask id="mask0_698_3117" style="mask-type:luminance" maskUnits="userSpaceOnUse" x="0" y="0" width="160" height="32">
<path d="M160 0H0V32H160V0Z" fill="white"/>
</mask>
<g mask="url(#mask0_698_3117)">
<path fill-rule="evenodd" clip-rule="evenodd" d="M49.6343 8.40727H60.9992C63.3216 8.40727 65.2949 9.49333 65.2998 11.9903V21.1539C65.2998 23.6509 63.3313 24.9018 60.9992 24.9018H49.6343V32H42.7107V24.9018H31.3458C29.0137 24.9018 27.0161 23.6509 27.0161 21.1539V11.9903C27.0161 9.49333 29.0137 8.40727 31.3458 8.40727H42.7107V0H49.6343V8.40727ZM35.4864 21.8133H42.7107V11.2339H35.4864C34.507 11.2339 33.6537 11.7915 33.6537 13.0085V20.0049C33.6537 21.2849 34.5022 21.8133 35.4864 21.8133ZM56.7907 21.8133C57.8428 21.8133 58.6962 21.2849 58.6962 20.0049V13.0085C58.6962 11.7915 57.8428 11.2339 56.7907 11.2339H49.6343V21.8133H56.7907Z" fill="#FF2100"/>
<path fill-rule="evenodd" clip-rule="evenodd" d="M19.7576 8.4072H0.0630327V11.2339H15.3939C16.4461 11.2339 17.3333 11.6605 17.3333 12.8436V13.663H4.13577C1.34304 13.663 0 15.1417 0 17.1781V21.2217C0 23.2581 1.34304 24.9066 4.13577 24.9066H23.8982V11.7284C23.8982 9.39629 22.0558 8.4072 19.7576 8.4072ZM17.3333 21.7793H8.66424C6.8606 21.7793 6.56484 21.1539 6.56484 20.1696V18.1623C6.56484 17.1733 7.08848 16.5527 8.66424 16.5527H17.3333V21.7793Z" fill="#FF2100"/>
<path d="M75.2775 19.9175C75.3308 19.1708 75.3405 18.4193 75.3017 17.6678V8.4072H68.412V24.9017H75.3647L85.7502 13.3478C85.692 14.0654 85.6484 15.166 85.6484 16.029V24.9017H92.5381V8.4072H85.6484L75.2775 19.9175Z" fill="#FF2100"/>
<path fill-rule="evenodd" clip-rule="evenodd" d="M136.165 8.4072H155.865C158.168 8.4072 160 9.39629 160 11.7284V24.9066H139.908C137.45 24.9066 136.102 23.0642 136.102 21.2217V17.1781C136.102 15.1417 137.513 13.663 139.908 13.663H153.436V12.8436C153.436 11.6605 152.548 11.2339 151.501 11.2339H136.165V8.4072ZM144.573 21.7793H153.436V16.5575H144.573C143.196 16.5575 142.667 17.2799 142.667 18.1672V20.2375C142.667 20.7611 142.963 21.7793 144.573 21.7793Z" fill="#FF2100"/>
<path d="M126.09 21.8133H117.819V8.4072H110.987V21.8133H102.817V8.4072H95.9858V24.9017H132.985V8.4072H126.09V21.8133Z" fill="#FF2100"/>
</g>
</svg>
