<svg width="217" height="32" viewBox="0 0 217 32" fill="none" xmlns="http://www.w3.org/2000/svg">
<path d="M35.5659 17.3788C35.3575 7.74568 27.4744 0 17.783 0C7.96279 0 0 7.96017 0 17.7771H7.11073C7.11073 25.6331 13.4859 32 21.3445 32C29.0682 32 35.3575 25.8476 35.5659 18.1754C35.5721 18.0467 35.5721 17.9119 35.5721 17.7771C35.5721 17.6423 35.5721 17.5136 35.5659 17.3788ZM21.3445 24.8916C17.4152 24.8916 14.2276 21.7051 14.2276 17.7771C14.2276 13.8491 17.4152 10.6687 21.3445 10.6687C25.2738 10.6687 28.4552 13.8552 28.4552 17.7771C28.4613 21.7051 25.2738 24.8916 21.3445 24.8916ZM136.82 6.63041C130.623 6.63041 125.584 11.6308 125.584 17.7771C125.584 24.0276 130.519 28.9238 136.82 28.9238C143.122 28.9238 148.057 24.0276 148.057 17.7771C148.057 11.6308 143.012 6.63041 136.82 6.63041ZM136.82 24.2482C133.504 24.2482 131.101 21.2945 131.101 17.7771C131.101 14.2597 133.504 11.306 136.82 11.306C140.057 11.306 142.497 14.321 142.497 17.7771C142.497 21.2945 140.106 24.2482 136.82 24.2482ZM87.4314 7.10226L87.4007 9.58407C87.4007 9.58407 87.1494 9.27767 86.9349 9.02642C85.8805 7.75794 83.8454 6.62428 80.854 6.62428C75.3309 6.62428 70.8376 11.6247 70.8376 17.771C70.8376 23.9173 75.3309 28.9238 80.854 28.9238C83.8454 28.9238 85.8805 27.7901 86.9349 26.5155C87.1494 26.2643 87.4007 25.964 87.4007 25.964L87.4314 28.4397H92.8748V17.7771V7.10226H87.4314ZM87.7563 17.7771C87.7563 21.4293 85.5188 24.2543 82.1229 24.2543C78.7269 24.2543 76.3607 21.4293 76.3607 17.7771C76.3607 14.131 78.7269 11.2999 82.1229 11.2999C85.5188 11.2999 87.7563 14.131 87.7563 17.7771ZM189.464 7.10226L189.434 9.58407C189.434 9.58407 189.182 9.27767 188.968 9.02642C187.913 7.75794 185.878 6.62428 182.887 6.62428C177.364 6.62428 172.871 11.6247 172.871 17.771C172.871 23.9173 177.364 28.9238 182.887 28.9238C185.878 28.9238 187.913 27.7901 188.968 26.5155C189.182 26.2643 189.434 25.964 189.434 25.964L189.464 28.4397H194.908V17.7771V7.10226H189.464ZM189.789 17.7771C189.789 21.4293 187.552 24.2543 184.156 24.2543C180.76 24.2543 178.394 21.4293 178.394 17.7771C178.394 14.131 180.76 11.2999 184.156 11.2999C187.552 11.2999 189.789 14.131 189.789 17.7771ZM57.4805 11.306C54.1151 11.306 51.7612 14.1004 51.7612 17.7771C51.7612 21.4539 54.1151 24.2482 57.4805 24.2482C59.8589 24.2482 61.6305 22.8449 62.6296 20.6143H68.1588C66.8041 25.8231 62.8381 28.9238 57.4805 28.9238C51.0747 28.9238 46.2382 24.1318 46.2382 17.7771C46.2382 11.4224 51.0747 6.63041 57.4805 6.63041C62.8381 6.63041 66.8041 9.73115 68.1588 14.946H62.6296C61.6366 12.7093 59.8589 11.306 57.4805 11.306ZM109.738 16.478L117.076 7.10839H121.765V28.4397H116.291V15.332L109.781 23.7028L103.234 15.3382V28.4458H97.7604V7.10839H102.45L109.738 16.478ZM162.646 17.6116L172.969 28.4458H165.987L157.313 19.2233V28.4458H151.839V7.10839H157.313V16.478L165.079 7.10839H171.528L162.646 17.6116ZM205.077 11.7043H198.635V7.10839H217V11.7043H210.551V28.4458H205.077V11.7043Z" fill="#FF335F"/>
</svg>
